<?xml version="1.0" ?>
<!-- Uploaded to: SVG Repo, www.svgrepo.com, Generator: SVG Repo Mixer Tools -->
<svg width="800px" height="800px" viewBox="0 0 64 64" xmlns="http://www.w3.org/2000/svg">
<defs>
<style>.cls-1{fill:#e6e6e6;}.cls-2{fill:#f0f0f0;}.cls-3{fill:#aa7b50;}.cls-4{fill:#bb9573;}</style>
</defs>
<title/>
<g data-name="Layer 25" id="Layer_25">
<path class="cls-1" d="M48.526.149a1,1,0,0,0-.973-.044l-8,4A1,1,0,0,0,40,6h8a1,1,0,0,0,1-1V1A1,1,0,0,0,48.526.149Z"/>
<path class="cls-2" d="M48.526.149a1,1,0,0,0-.973-.044l-.716.358A.992.992,0,0,1,47,1V5a1,1,0,0,1-1,1h2a1,1,0,0,0,1-1V1A1,1,0,0,0,48.526.149Z"/>
<path class="cls-1" d="M51.738,18.326A1,1,0,0,0,51,18H13a1,1,0,0,0-1,1.09l4,44A1,1,0,0,0,17,64H47a1,1,0,0,0,1-.909l4-44A1,1,0,0,0,51.738,18.326Z"/>
<path class="cls-2" d="M51.738,18.326A1,1,0,0,0,51,18H49a1,1,0,0,1,1,1.09l-4,44A1,1,0,0,1,45,64h2a1,1,0,0,0,1-.909l4-44A1,1,0,0,0,51.738,18.326Z"/>
<path class="cls-3" d="M50.469,32.326A1,1,0,0,0,49.73,32H36a1,1,0,0,0-.707.293L32,35.586l-3.293-3.293A1,1,0,0,0,28,32H14.27a1,1,0,0,0-1,1.091l1.46,16a1,1,0,0,0,1,.909H48.27a1,1,0,0,0,1-.909l1.46-16A1,1,0,0,0,50.469,32.326Z"/>
<path class="cls-4" d="M50.469,32.326A1,1,0,0,0,49.73,32h-2a1,1,0,0,1,1,1.091l-1.46,16a1,1,0,0,1-1,.909h2a1,1,0,0,0,1-.909l1.46-16A1,1,0,0,0,50.469,32.326Z"/>
<rect class="cls-3" height="6" rx="1" width="38" x="13" y="4"/>
<path class="cls-4" d="M50,4H48a1,1,0,0,1,1,1V9a1,1,0,0,1-1,1h2a1,1,0,0,0,1-1V5A1,1,0,0,0,50,4Z"/>
<path class="cls-1" d="M53.97,12.757l-1-4A1,1,0,0,0,52,8H12a1,1,0,0,0-.97.757l-1,4A1,1,0,0,0,11,14H53a1,1,0,0,0,.97-1.243Z"/>
<path class="cls-2" d="M53.97,12.757l-1-4A1,1,0,0,0,52,8H50a1,1,0,0,1,.97.757l1,4A1,1,0,0,1,51,14h2a1,1,0,0,0,.97-1.243Z"/>
<rect class="cls-3" height="8" rx="1" width="48" x="8" y="12"/>
<path class="cls-4" d="M55,12H53a1,1,0,0,1,1,1v6a1,1,0,0,1-1,1h2a1,1,0,0,0,1-1V13A1,1,0,0,0,55,12Z"/>
</g>
</svg>