<?xml version="1.0" encoding="iso-8859-1"?>
<!-- Uploaded to: SVG Repo, www.svgrepo.com, Generator: SVG Repo Mixer Tools -->
<svg version="1.1" id="Layer_1" xmlns="http://www.w3.org/2000/svg" xmlns:xlink="http://www.w3.org/1999/xlink" 
	 viewBox="0 0 512 512" xml:space="preserve">
<polygon style="fill:#A5001E;" points="68.576,183.835 95.005,259.117 208.731,259.117 235.16,183.835 "/>
<polygon style="fill:#830018;" points="235.16,183.835 208.731,259.117 151.868,259.117 151.868,183.835 "/>
<polygon style="fill:#A5001E;" points="95.005,259.117 208.731,259.117 293.641,470.55 252.779,488.17 50.956,488.17 10.095,470.55 
	"/>
<g>
	<polygon style="fill:#830018;" points="293.64,470.55 252.779,488.17 151.868,488.17 151.868,259.117 208.731,259.117 	"/>
	<path style="fill:#830018;" d="M504.183,210.934H332.205c-14.966,0-27.099-12.133-27.099-27.099l0,0h199.077V210.934z"/>
</g>
<path d="M305.107,176.016h-7.817H57.547l29.108,82.915L0,474.71l49.343,21.276h205.048l49.343-21.276l-86.655-215.779l17.773-50.627
	l-14.752-5.179l-16.912,48.174H100.544L79.604,191.65h218.578c3.56,15.5,17.458,27.099,34.023,27.099H512v-42.734H305.107V176.016z
	 M251.165,480.353H52.571l-32.382-13.962l80.1-199.456h103.156l80.1,199.456L251.165,480.353z M496.366,203.116h-164.16
	c-7.851,0-14.621-4.716-17.626-11.465h181.787V203.116z"/>
<rect x="115.392" y="16.014" width="15.634" height="142.793"/>
<rect x="172.718" y="50.405" width="15.634" height="108.398"/>
</svg>